<svg xmlns="http://www.w3.org/2000/svg" width="512" height="512" viewBox="0 0 512 512">
  <defs>
    <linearGradient id="bg" x1="0" y1="0" x2="1" y2="1">
      <stop offset="0%" stop-color="#1D9BF0"/>
      <stop offset="100%" stop-color="#4DBBFF"/>
    </linearGradient>
    <filter id="soft" x="-20%" y="-20%" width="140%" height="140%">
      <feGaussianBlur in="SourceAlpha" stdDeviation="8"/>
      <feOffset dx="0" dy="6" result="offsetblur"/>
      <feComponentTransfer><feFuncA type="linear" slope="0.35"/></feComponentTransfer>
      <feMerge><feMergeNode/><feMergeNode in="SourceGraphic"/></feMerge>
    </filter>
  </defs>

  <rect x="32" y="32" width="448" height="448" rx="112" fill="url(#bg)" filter="url(#soft)"/>

  <g transform="translate(96 96) scale(13.333)"
     fill="none" stroke="#ffffff" stroke-width="2"
     stroke-linecap="round" stroke-linejoin="round">
    <path d="M16 7h.01"/>
    <path d="M3.4 18H12a8 8 0 0 0 8-8V7a4 4 0 0 0-7.28-2.3L2 20"/>
    <path d="m20 7 2 .5-2 .5"/>
    <path d="M10 18v3"/>
    <path d="M14 17.75V21"/>
    <path d="M7 18a6 6 0 0 0 3.84-10.61"/>
  </g>
</svg>
